<?xml version="1.0" standalone="no"?>
<!DOCTYPE svg PUBLIC "-//W3C//DTD SVG 20010904//EN"
 "http://www.w3.org/TR/2001/REC-SVG-20010904/DTD/svg10.dtd">
<svg version="1.0" xmlns="http://www.w3.org/2000/svg"
 width="389.000000pt" height="346.000000pt" viewBox="0 0 389.000000 346.000000"
 preserveAspectRatio="xMidYMid meet">
<metadata>
Created by potrace 1.15, written by Peter Selinger 2001-2017
</metadata>
<g transform="translate(0.000000,346.000000) scale(0.100000,-0.100000)"
fill="#000000" stroke="none">
<path d="M1706 2630 c-249 -101 -427 -253 -520 -445 -56 -115 -71 -177 -69
-295 2 -176 67 -320 210 -469 l83 -86 -30 65 c-43 96 -61 174 -61 277 0 179
60 324 195 470 98 106 222 189 380 254 50 21 91 41 90 44 -2 12 -166 225 -173
225 -3 0 -51 -18 -105 -40z"/>
<path d="M1869 2311 c-191 -81 -327 -233 -359 -401 -18 -97 6 -200 71 -301 36
-55 42 -60 55 -47 12 12 13 26 4 81 -19 122 24 254 118 358 53 59 167 137 247
169 33 13 62 25 64 26 8 6 -105 143 -119 143 -8 0 -45 -12 -81 -28z"/>
<path d="M1503 1574 c24 -145 177 -304 367 -381 l61 -24 146 68 147 68 -109 7
c-143 10 -249 37 -365 94 -76 38 -109 62 -174 126 l-79 80 6 -38z"/>
<path d="M1100 1543 c0 -10 7 -46 15 -78 140 -536 926 -829 1587 -591 51 18
92 37 91 42 -1 5 -28 66 -61 135 l-59 126 -99 -33 c-291 -94 -640 -92 -922 7
-218 78 -397 201 -509 353 -28 38 -43 52 -43 39z"/>
</g>
</svg>
